<svg width="640" height="300" viewBox="0 0 640 300" fill="none" xmlns="http://www.w3.org/2000/svg">
  <rect width="640" height="300" rx="20" fill="#EDF4FF"/>
  <path d="M98 210L186 150L304 190L436 126L548 164" stroke="#1A4D8C" stroke-width="4" stroke-linecap="round"/>
  <circle cx="98" cy="210" r="18" fill="#FF9F1C"/>
  <circle cx="186" cy="150" r="18" fill="#0F446F"/>
  <circle cx="304" cy="190" r="18" fill="#0F446F"/>
  <circle cx="436" cy="126" r="18" fill="#0F446F"/>
  <circle cx="548" cy="164" r="18" fill="#137333"/>
  <rect x="70" y="54" width="100" height="44" rx="10" fill="#FFFFFF"/>
  <rect x="270" y="54" width="100" height="44" rx="10" fill="#FFFFFF"/>
  <rect x="470" y="54" width="100" height="44" rx="10" fill="#FFFFFF"/>
  <rect x="90" y="70" width="60" height="10" rx="5" fill="#A8C6E4"/>
  <rect x="290" y="70" width="60" height="10" rx="5" fill="#A8C6E4"/>
  <rect x="490" y="70" width="60" height="10" rx="5" fill="#A8C6E4"/>
  <path d="M186 150L186 98" stroke="#88AFD2" stroke-width="3" stroke-linecap="round"/>
  <path d="M304 190L304 98" stroke="#88AFD2" stroke-width="3" stroke-linecap="round"/>
  <path d="M436 126L436 98" stroke="#88AFD2" stroke-width="3" stroke-linecap="round"/>
</svg>
